<svg xmlns="http://www.w3.org/2000/svg" style="display:none">
  <defs>
    <!-- Padrão: 24x24 viewBox, line-style, stroke=currentColor, stroke-width=1.6 -->

    <!-- Segurança / Confiança -->
    <symbol id="i-shield" viewBox="0 0 24 24" fill="none" stroke="currentColor" stroke-width="1.6" stroke-linecap="round" stroke-linejoin="round">
      <path d="M12 2L4 6v6c0 5 3.5 9 8 10 4.5-1 8-5 8-10V6l-8-4z"/>
      <path d="M9 12l2 2 4-4"/>
    </symbol>
    <symbol id="i-lock" viewBox="0 0 24 24" fill="none" stroke="currentColor" stroke-width="1.6" stroke-linecap="round" stroke-linejoin="round">
      <rect x="4" y="11" width="16" height="10" rx="2"/>
      <path d="M8 11V7a4 4 0 1 1 8 0v4"/>
    </symbol>
    <symbol id="i-check" viewBox="0 0 24 24" fill="none" stroke="currentColor" stroke-width="2.2" stroke-linecap="round" stroke-linejoin="round">
      <polyline points="4 12 10 18 20 7"/>
    </symbol>
    <symbol id="i-check-circle" viewBox="0 0 24 24" fill="none" stroke="currentColor" stroke-width="1.6" stroke-linecap="round" stroke-linejoin="round">
      <circle cx="12" cy="12" r="10"/>
      <polyline points="8 12 11 15 16 9"/>
    </symbol>
    <symbol id="i-close" viewBox="0 0 24 24" fill="none" stroke="currentColor" stroke-width="2" stroke-linecap="round">
      <path d="M6 6l12 12M18 6L6 18"/>
    </symbol>
    <symbol id="i-alert" viewBox="0 0 24 24" fill="none" stroke="currentColor" stroke-width="1.6" stroke-linecap="round" stroke-linejoin="round">
      <path d="M10.3 3.86l-8.06 13.95A2 2 0 0 0 4 21h16a2 2 0 0 0 1.76-3.19L13.7 3.86a2 2 0 0 0-3.4 0z"/>
      <line x1="12" y1="9" x2="12" y2="13"/>
      <circle cx="12" cy="17" r="0.6" fill="currentColor"/>
    </symbol>
    <symbol id="i-siren" viewBox="0 0 24 24" fill="none" stroke="currentColor" stroke-width="1.6" stroke-linecap="round" stroke-linejoin="round">
      <path d="M7 18v-6a5 5 0 0 1 10 0v6"/>
      <rect x="5" y="18" width="14" height="3" rx="1.5"/>
      <line x1="12" y1="3" x2="12" y2="6"/>
      <line x1="4" y1="9" x2="6" y2="10"/>
      <line x1="20" y1="9" x2="18" y2="10"/>
    </symbol>

    <!-- Pagamento -->
    <symbol id="i-bolt" viewBox="0 0 24 24" fill="none" stroke="currentColor" stroke-width="1.6" stroke-linecap="round" stroke-linejoin="round">
      <polygon points="13 2 3 14 12 14 11 22 21 10 12 10 13 2"/>
    </symbol>
    <symbol id="i-receipt" viewBox="0 0 24 24" fill="none" stroke="currentColor" stroke-width="1.6" stroke-linecap="round" stroke-linejoin="round">
      <path d="M5 21V5a2 2 0 0 1 2-2h10a2 2 0 0 1 2 2v16l-3-2-2 2-2-2-2 2-2-2-3 2z"/>
      <line x1="9" y1="9"  x2="15" y2="9"/>
      <line x1="9" y1="13" x2="15" y2="13"/>
    </symbol>
    <symbol id="i-credit-card" viewBox="0 0 24 24" fill="none" stroke="currentColor" stroke-width="1.6" stroke-linecap="round" stroke-linejoin="round">
      <rect x="2" y="6" width="20" height="13" rx="2"/>
      <line x1="2" y1="11" x2="22" y2="11"/>
    </symbol>
    <symbol id="i-money" viewBox="0 0 24 24" fill="none" stroke="currentColor" stroke-width="1.6" stroke-linecap="round" stroke-linejoin="round">
      <rect x="2" y="6" width="20" height="12" rx="2"/>
      <circle cx="12" cy="12" r="3"/>
      <line x1="6" y1="12" x2="6.01" y2="12"/>
      <line x1="18" y1="12" x2="18.01" y2="12"/>
    </symbol>

    <!-- Comunicação -->
    <symbol id="i-mail" viewBox="0 0 24 24" fill="none" stroke="currentColor" stroke-width="1.6" stroke-linecap="round" stroke-linejoin="round">
      <rect x="3" y="5" width="18" height="14" rx="2"/>
      <polyline points="3 7 12 13 21 7"/>
    </symbol>
    <symbol id="i-mail-send" viewBox="0 0 24 24" fill="none" stroke="currentColor" stroke-width="1.6" stroke-linecap="round" stroke-linejoin="round">
      <line x1="22" y1="2"  x2="11" y2="13"/>
      <polygon points="22 2 15 22 11 13 2 9 22 2"/>
    </symbol>
    <symbol id="i-phone" viewBox="0 0 24 24" fill="none" stroke="currentColor" stroke-width="1.6" stroke-linecap="round" stroke-linejoin="round">
      <path d="M22 16.92v3a2 2 0 0 1-2.18 2 19.79 19.79 0 0 1-8.63-3.07 19.5 19.5 0 0 1-6-6 19.79 19.79 0 0 1-3.07-8.67A2 2 0 0 1 4.11 2h3a2 2 0 0 1 2 1.72c.13.96.36 1.9.7 2.81a2 2 0 0 1-.45 2.11L8.09 9.91a16 16 0 0 0 6 6l1.27-1.27a2 2 0 0 1 2.11-.45c.91.34 1.85.57 2.81.7A2 2 0 0 1 22 16.92z"/>
    </symbol>
    <symbol id="i-mobile" viewBox="0 0 24 24" fill="none" stroke="currentColor" stroke-width="1.6" stroke-linecap="round" stroke-linejoin="round">
      <rect x="6" y="2" width="12" height="20" rx="2"/>
      <line x1="11" y1="18" x2="13" y2="18"/>
    </symbol>
    <symbol id="i-chat" viewBox="0 0 24 24" fill="none" stroke="currentColor" stroke-width="1.6" stroke-linecap="round" stroke-linejoin="round">
      <path d="M21 15a2 2 0 0 1-2 2H7l-4 4V5a2 2 0 0 1 2-2h14a2 2 0 0 1 2 2z"/>
    </symbol>
    <symbol id="i-whatsapp" viewBox="0 0 24 24" fill="currentColor">
      <path d="M17.5 14.4c-.3-.1-1.7-.8-2-.9-.3-.1-.5-.1-.6.1-.2.2-.7.9-.9 1-.2.2-.3.2-.6.1-.3-.2-1.2-.4-2.2-1.4-.8-.7-1.4-1.6-1.5-1.9-.2-.3 0-.4.1-.6.1-.1.3-.3.4-.5.1-.2.2-.3.3-.5.1-.2 0-.4 0-.5 0-.1-.6-1.5-.9-2-.2-.5-.5-.5-.6-.5h-.5c-.2 0-.5.1-.7.4-.2.3-.9.9-.9 2.2 0 1.3.9 2.5 1 2.7.1.1 1.7 2.7 4.2 3.7 2.1.8 2.5.7 3 .6.5-.1 1.7-.7 1.9-1.4.2-.7.2-1.2.2-1.4-.2-.1-.4-.2-.7-.4z"/>
      <path d="M22.4 5.6C20.1 3.3 17.1 2 13.9 2 7.5 2 2.3 7.2 2.3 13.6c0 2 .5 4 1.5 5.7L2 24l4.9-1.7c1.7.9 3.6 1.4 5.6 1.4h.1c6.4 0 11.6-5.2 11.6-11.6 0-3.2-1.3-6.2-3.8-8.5zm-8.5 18c-1.7 0-3.4-.5-4.9-1.4l-.4-.2-3.5 1.2 1.2-3.4-.2-.4c-.9-1.5-1.5-3.3-1.5-5.1 0-5.4 4.4-9.8 9.8-9.8 2.6 0 5.1 1 6.9 2.9 1.8 1.8 2.8 4.3 2.8 6.9 0 5.4-4.5 9.8-9.9 9.8h-.3z" fill="none" stroke="currentColor" stroke-width="0.5"/>
    </symbol>
    <symbol id="i-bell" viewBox="0 0 24 24" fill="none" stroke="currentColor" stroke-width="1.6" stroke-linecap="round" stroke-linejoin="round">
      <path d="M18 8a6 6 0 0 0-12 0c0 7-3 9-3 9h18s-3-2-3-9"/>
      <path d="M13.7 21a2 2 0 0 1-3.4 0"/>
    </symbol>

    <!-- Local / Conexão -->
    <symbol id="i-pin" viewBox="0 0 24 24" fill="none" stroke="currentColor" stroke-width="1.6" stroke-linecap="round" stroke-linejoin="round">
      <path d="M21 10c0 7-9 13-9 13S3 17 3 10a9 9 0 0 1 18 0z"/>
      <circle cx="12" cy="10" r="3"/>
    </symbol>
    <symbol id="i-globe" viewBox="0 0 24 24" fill="none" stroke="currentColor" stroke-width="1.6" stroke-linecap="round" stroke-linejoin="round">
      <circle cx="12" cy="12" r="10"/>
      <line x1="2" y1="12" x2="22" y2="12"/>
      <path d="M12 2a15.3 15.3 0 0 1 4 10 15.3 15.3 0 0 1-4 10 15.3 15.3 0 0 1-4-10 15.3 15.3 0 0 1 4-10z"/>
    </symbol>

    <!-- Saúde -->
    <symbol id="i-stethoscope" viewBox="0 0 24 24" fill="none" stroke="currentColor" stroke-width="1.6" stroke-linecap="round" stroke-linejoin="round">
      <path d="M4 3v6a5 5 0 0 0 10 0V3"/>
      <line x1="2"  y1="3" x2="6"  y2="3"/>
      <line x1="12" y1="3" x2="16" y2="3"/>
      <path d="M9 14v3a4 4 0 0 0 8 0v-1"/>
      <circle cx="18" cy="14" r="2"/>
    </symbol>
    <symbol id="i-tooth" viewBox="0 0 24 24" fill="none" stroke="currentColor" stroke-width="1.6" stroke-linecap="round" stroke-linejoin="round">
      <path d="M12 5.5c-2 0-3-1.5-5-1.5-3 0-4 2-4 5.5 0 4 2 6 3 9 1 2.5 1.5 4 2.5 4s1-2.5 2-5c.4-1 .8-1.5 1.5-1.5s1.1.5 1.5 1.5c1 2.5 1.5 5 2.5 5s1.5-1.5 2.5-4c1-3 3-5 3-9 0-3.5-1-5.5-4-5.5-2 0-3 1.5-5 1.5z"/>
    </symbol>

    <!-- Documentos / Conteúdo -->
    <symbol id="i-file" viewBox="0 0 24 24" fill="none" stroke="currentColor" stroke-width="1.6" stroke-linecap="round" stroke-linejoin="round">
      <path d="M14 2H6a2 2 0 0 0-2 2v16a2 2 0 0 0 2 2h12a2 2 0 0 0 2-2V8z"/>
      <polyline points="14 2 14 8 20 8"/>
    </symbol>
    <symbol id="i-file-text" viewBox="0 0 24 24" fill="none" stroke="currentColor" stroke-width="1.6" stroke-linecap="round" stroke-linejoin="round">
      <path d="M14 2H6a2 2 0 0 0-2 2v16a2 2 0 0 0 2 2h12a2 2 0 0 0 2-2V8z"/>
      <polyline points="14 2 14 8 20 8"/>
      <line x1="9"  y1="13" x2="15" y2="13"/>
      <line x1="9"  y1="17" x2="13" y2="17"/>
    </symbol>
    <symbol id="i-clipboard" viewBox="0 0 24 24" fill="none" stroke="currentColor" stroke-width="1.6" stroke-linecap="round" stroke-linejoin="round">
      <path d="M16 4h2a2 2 0 0 1 2 2v14a2 2 0 0 1-2 2H6a2 2 0 0 1-2-2V6a2 2 0 0 1 2-2h2"/>
      <rect x="8" y="2" width="8" height="4" rx="1"/>
    </symbol>
    <symbol id="i-pencil" viewBox="0 0 24 24" fill="none" stroke="currentColor" stroke-width="1.6" stroke-linecap="round" stroke-linejoin="round">
      <path d="M12 20h9"/>
      <path d="M16.5 3.5a2.12 2.12 0 0 1 3 3L7 19l-4 1 1-4z"/>
    </symbol>
    <symbol id="i-scroll" viewBox="0 0 24 24" fill="none" stroke="currentColor" stroke-width="1.6" stroke-linecap="round" stroke-linejoin="round">
      <path d="M8 21h12a2 2 0 0 0 2-2v-2H10v2a2 2 0 0 1-4 0V5a2 2 0 0 0-4 0v2h2"/>
      <path d="M19 17V5a2 2 0 0 0-2-2H4"/>
    </symbol>

    <!-- Ações -->
    <symbol id="i-clock" viewBox="0 0 24 24" fill="none" stroke="currentColor" stroke-width="1.6" stroke-linecap="round" stroke-linejoin="round">
      <circle cx="12" cy="12" r="10"/>
      <polyline points="12 6 12 12 16 14"/>
    </symbol>
    <symbol id="i-download" viewBox="0 0 24 24" fill="none" stroke="currentColor" stroke-width="1.6" stroke-linecap="round" stroke-linejoin="round">
      <path d="M21 15v4a2 2 0 0 1-2 2H5a2 2 0 0 1-2-2v-4"/>
      <polyline points="7 10 12 15 17 10"/>
      <line x1="12" y1="15" x2="12" y2="3"/>
    </symbol>
    <symbol id="i-share" viewBox="0 0 24 24" fill="none" stroke="currentColor" stroke-width="1.6" stroke-linecap="round" stroke-linejoin="round">
      <circle cx="18" cy="5"  r="3"/>
      <circle cx="6"  cy="12" r="3"/>
      <circle cx="18" cy="19" r="3"/>
      <line x1="8.59" y1="13.51" x2="15.42" y2="17.49"/>
      <line x1="15.41" y1="6.51" x2="8.59"  y2="10.49"/>
    </symbol>
    <symbol id="i-refresh" viewBox="0 0 24 24" fill="none" stroke="currentColor" stroke-width="1.6" stroke-linecap="round" stroke-linejoin="round">
      <polyline points="23 4 23 10 17 10"/>
      <polyline points="1 20 1 14 7 14"/>
      <path d="M3.51 9a9 9 0 0 1 14.85-3.36L23 10M1 14l4.64 4.36A9 9 0 0 0 20.49 15"/>
    </symbol>
    <symbol id="i-target" viewBox="0 0 24 24" fill="none" stroke="currentColor" stroke-width="1.6" stroke-linecap="round" stroke-linejoin="round">
      <circle cx="12" cy="12" r="10"/>
      <circle cx="12" cy="12" r="6"/>
      <circle cx="12" cy="12" r="2"/>
    </symbol>
    <symbol id="i-help" viewBox="0 0 24 24" fill="none" stroke="currentColor" stroke-width="1.6" stroke-linecap="round" stroke-linejoin="round">
      <circle cx="12" cy="12" r="10"/>
      <path d="M9.09 9a3 3 0 0 1 5.83 1c0 2-3 3-3 3"/>
      <line x1="12" y1="17" x2="12.01" y2="17"/>
    </symbol>
    <symbol id="i-gear" viewBox="0 0 24 24" fill="none" stroke="currentColor" stroke-width="1.6" stroke-linecap="round" stroke-linejoin="round">
      <circle cx="12" cy="12" r="3"/>
      <path d="M19.4 15a1.65 1.65 0 0 0 .33 1.82l.06.06a2 2 0 0 1 0 2.83 2 2 0 0 1-2.83 0l-.06-.06a1.65 1.65 0 0 0-1.82-.33 1.65 1.65 0 0 0-1 1.51V21a2 2 0 0 1-2 2 2 2 0 0 1-2-2v-.09A1.65 1.65 0 0 0 9 19.4a1.65 1.65 0 0 0-1.82.33l-.06.06a2 2 0 0 1-2.83 0 2 2 0 0 1 0-2.83l.06-.06a1.65 1.65 0 0 0 .33-1.82 1.65 1.65 0 0 0-1.51-1H3a2 2 0 0 1-2-2 2 2 0 0 1 2-2h.09A1.65 1.65 0 0 0 4.6 9a1.65 1.65 0 0 0-.33-1.82l-.06-.06a2 2 0 0 1 0-2.83 2 2 0 0 1 2.83 0l.06.06a1.65 1.65 0 0 0 1.82.33H9a1.65 1.65 0 0 0 1-1.51V3a2 2 0 0 1 2-2 2 2 0 0 1 2 2v.09a1.65 1.65 0 0 0 1 1.51 1.65 1.65 0 0 0 1.82-.33l.06-.06a2 2 0 0 1 2.83 0 2 2 0 0 1 0 2.83l-.06.06a1.65 1.65 0 0 0-.33 1.82V9a1.65 1.65 0 0 0 1.51 1H21a2 2 0 0 1 2 2 2 2 0 0 1-2 2h-.09a1.65 1.65 0 0 0-1.51 1z"/>
    </symbol>

    <!-- Pessoas / Família -->
    <symbol id="i-user" viewBox="0 0 24 24" fill="none" stroke="currentColor" stroke-width="1.6" stroke-linecap="round" stroke-linejoin="round">
      <circle cx="12" cy="8" r="4"/>
      <path d="M4 21v-1a8 8 0 0 1 16 0v1"/>
    </symbol>
    <symbol id="i-users" viewBox="0 0 24 24" fill="none" stroke="currentColor" stroke-width="1.6" stroke-linecap="round" stroke-linejoin="round">
      <path d="M17 21v-2a4 4 0 0 0-4-4H5a4 4 0 0 0-4 4v2"/>
      <circle cx="9" cy="7" r="4"/>
      <path d="M23 21v-2a4 4 0 0 0-3-3.87"/>
      <path d="M16 3.13a4 4 0 0 1 0 7.75"/>
    </symbol>
    <symbol id="i-family" viewBox="0 0 24 24" fill="none" stroke="currentColor" stroke-width="1.6" stroke-linecap="round" stroke-linejoin="round">
      <circle cx="6"  cy="6" r="2"/>
      <circle cx="18" cy="6" r="2"/>
      <circle cx="12" cy="14" r="1.5"/>
      <path d="M6 9v3a3 3 0 0 0 3 3"/>
      <path d="M18 9v3a3 3 0 0 1-3 3"/>
      <path d="M12 16v5"/>
      <path d="M9 19h6"/>
    </symbol>
    <symbol id="i-key" viewBox="0 0 24 24" fill="none" stroke="currentColor" stroke-width="1.6" stroke-linecap="round" stroke-linejoin="round">
      <circle cx="7.5" cy="15.5" r="3.5"/>
      <line x1="10"  y1="13" x2="20" y2="3"/>
      <line x1="17"  y1="6"  x2="20" y2="9"/>
      <line x1="14"  y1="9"  x2="17" y2="12"/>
    </symbol>

    <!-- Data / Insights -->
    <symbol id="i-chart" viewBox="0 0 24 24" fill="none" stroke="currentColor" stroke-width="1.6" stroke-linecap="round" stroke-linejoin="round">
      <line x1="12" y1="20" x2="12" y2="10"/>
      <line x1="18" y1="20" x2="18" y2="4"/>
      <line x1="6"  y1="20" x2="6"  y2="16"/>
    </symbol>
    <symbol id="i-trending-up" viewBox="0 0 24 24" fill="none" stroke="currentColor" stroke-width="1.6" stroke-linecap="round" stroke-linejoin="round">
      <polyline points="23 6 13.5 15.5 8.5 10.5 1 18"/>
      <polyline points="17 6 23 6 23 12"/>
    </symbol>
    <symbol id="i-calendar" viewBox="0 0 24 24" fill="none" stroke="currentColor" stroke-width="1.6" stroke-linecap="round" stroke-linejoin="round">
      <rect x="3" y="4" width="18" height="18" rx="2"/>
      <line x1="16" y1="2" x2="16" y2="6"/>
      <line x1="8"  y1="2" x2="8"  y2="6"/>
      <line x1="3" y1="10" x2="21" y2="10"/>
    </symbol>
    <symbol id="i-inbox" viewBox="0 0 24 24" fill="none" stroke="currentColor" stroke-width="1.6" stroke-linecap="round" stroke-linejoin="round">
      <polyline points="22 12 16 12 14 15 10 15 8 12 2 12"/>
      <path d="M5.45 5.11L2 12v6a2 2 0 0 0 2 2h16a2 2 0 0 0 2-2v-6l-3.45-6.89A2 2 0 0 0 16.76 4H7.24a2 2 0 0 0-1.79 1.11z"/>
    </symbol>

    <!-- Estética / Decorativo -->
    <symbol id="i-heart" viewBox="0 0 24 24" fill="currentColor">
      <path d="M20.84 4.61a5.5 5.5 0 0 0-7.78 0L12 5.67l-1.06-1.06a5.5 5.5 0 0 0-7.78 7.78l1.06 1.06L12 21.23l7.78-7.78 1.06-1.06a5.5 5.5 0 0 0 0-7.78z"/>
    </symbol>
    <symbol id="i-star" viewBox="0 0 24 24" fill="currentColor">
      <polygon points="12 2 15.1 8.6 22 9.6 17 14.5 18.2 21.4 12 18.1 5.8 21.4 7 14.5 2 9.6 8.9 8.6 12 2"/>
    </symbol>
    <symbol id="i-sparkle" viewBox="0 0 24 24" fill="currentColor">
      <path d="M12 2l2.4 6.8L21 12l-6.6 3.2L12 22l-2.4-6.8L3 12l6.6-3.2L12 2z"/>
    </symbol>
    <symbol id="i-candle" viewBox="0 0 24 24" fill="none" stroke="currentColor" stroke-width="1.6" stroke-linecap="round" stroke-linejoin="round">
      <path d="M12 3c-1.5 2 -1.5 3 0 4 1.5-1 1.5-2 0-4z" fill="currentColor"/>
      <rect x="9" y="8" width="6" height="13" rx="1"/>
      <line x1="9" y1="11" x2="15" y2="11"/>
    </symbol>
    <symbol id="i-dove" viewBox="0 0 24 24" fill="currentColor">
      <path d="M2 12c2-3 5-4 8-3.5C13 6 17 5 21 8c-2 3-5 5-8 5l-2 5-2-3c-3 0-5-1-7-3z"/>
    </symbol>
    <symbol id="i-sun" viewBox="0 0 24 24" fill="none" stroke="currentColor" stroke-width="1.6" stroke-linecap="round" stroke-linejoin="round">
      <circle cx="12" cy="12" r="4"/>
      <line x1="12" y1="2"  x2="12" y2="4"/>
      <line x1="12" y1="20" x2="12" y2="22"/>
      <line x1="4.93"  y1="4.93"  x2="6.34"  y2="6.34"/>
      <line x1="17.66" y1="17.66" x2="19.07" y2="19.07"/>
      <line x1="2"  y1="12" x2="4"  y2="12"/>
      <line x1="20" y1="12" x2="22" y2="12"/>
      <line x1="6.34" y1="17.66" x2="4.93"  y2="19.07"/>
      <line x1="19.07" y1="4.93" x2="17.66" y2="6.34"/>
    </symbol>
    <symbol id="i-film" viewBox="0 0 24 24" fill="none" stroke="currentColor" stroke-width="1.6" stroke-linecap="round" stroke-linejoin="round">
      <rect x="2" y="4" width="20" height="16" rx="2"/>
      <line x1="7"  y1="4" x2="7"  y2="20"/>
      <line x1="17" y1="4" x2="17" y2="20"/>
      <line x1="2"  y1="12" x2="22" y2="12"/>
      <line x1="2"  y1="8"  x2="7"  y2="8"/>
      <line x1="2"  y1="16" x2="7"  y2="16"/>
      <line x1="17" y1="8"  x2="22" y2="8"/>
      <line x1="17" y1="16" x2="22" y2="16"/>
    </symbol>
    <symbol id="i-flame" viewBox="0 0 24 24" fill="none" stroke="currentColor" stroke-width="1.6" stroke-linecap="round" stroke-linejoin="round">
      <path d="M8.5 14.5c0-2.5 3.5-5 3.5-9 2 1 4 3 4 6 0 4-3 7-7 7s-7-3-7-7c0-2 1-3 2.5-4 0 2 1.5 3.5 4 3.5z"/>
    </symbol>
    <symbol id="i-pillar" viewBox="0 0 24 24" fill="none" stroke="currentColor" stroke-width="1.6" stroke-linecap="round" stroke-linejoin="round">
      <path d="M3 22h18"/>
      <path d="M3 4h18"/>
      <path d="M5 4v18"/>
      <path d="M19 4v18"/>
      <path d="M9 4v18"/>
      <path d="M15 4v18"/>
      <path d="M2 2l10-1 10 1"/>
    </symbol>
    <symbol id="i-lightbulb" viewBox="0 0 24 24" fill="none" stroke="currentColor" stroke-width="1.6" stroke-linecap="round" stroke-linejoin="round">
      <path d="M9 18h6"/>
      <path d="M10 21h4"/>
      <path d="M12 3a6 6 0 0 0-3.5 11l1 1.5h5l1-1.5A6 6 0 0 0 12 3z"/>
    </symbol>
    <symbol id="i-bot" viewBox="0 0 24 24" fill="none" stroke="currentColor" stroke-width="1.6" stroke-linecap="round" stroke-linejoin="round">
      <rect x="4" y="8" width="16" height="12" rx="2"/>
      <circle cx="9"  cy="14" r="1" fill="currentColor"/>
      <circle cx="15" cy="14" r="1" fill="currentColor"/>
      <line x1="12" y1="3" x2="12" y2="8"/>
      <line x1="2" y1="14" x2="4"  y2="14"/>
      <line x1="20" y1="14" x2="22" y2="14"/>
    </symbol>
    <symbol id="i-grid" viewBox="0 0 24 24" fill="none" stroke="currentColor" stroke-width="1.6" stroke-linecap="round" stroke-linejoin="round">
      <rect x="3"  y="3"  width="7" height="7" rx="1"/>
      <rect x="14" y="3"  width="7" height="7" rx="1"/>
      <rect x="14" y="14" width="7" height="7" rx="1"/>
      <rect x="3"  y="14" width="7" height="7" rx="1"/>
    </symbol>
    <symbol id="i-trophy" viewBox="0 0 24 24" fill="none" stroke="currentColor" stroke-width="1.6" stroke-linecap="round" stroke-linejoin="round">
      <path d="M8 21h8"/>
      <path d="M12 17v4"/>
      <path d="M7 4h10v6a5 5 0 0 1-10 0V4z"/>
      <path d="M17 4h3v3a3 3 0 0 1-3 3"/>
      <path d="M7 4H4v3a3 3 0 0 0 3 3"/>
    </symbol>
  </defs>
</svg>
